<svg width="173" height="42" viewBox="0 0 173 42" xmlns="http://www.w3.org/2000/svg" xmlns:xlink="http://www.w3.org/1999/xlink"><defs><path id="a" d="M.397.362h92.848v36.335H.396z"/></defs><g fill="none" fill-rule="evenodd"><g transform="translate(79 2.94)"><mask id="b" fill="#fff"><use xlink:href="#a"/></mask><path d="M89.561.362a3.695 3.695 0 0 1 3.684 3.684v28.968a3.694 3.694 0 0 1-3.684 3.683h-52.7L.398.362H89.56z" fill="#FFF" mask="url(#b)"/></g><path d="M115.861 39.638H5.985a3.69 3.69 0 0 1-3.683-3.68V6.986a3.693 3.693 0 0 1 3.683-3.683h73.411l36.465 36.335z" fill="#231F20"/><path d="M7.209 6.986a1.23 1.23 0 1 1-2.46 0 1.23 1.23 0 0 1 2.46 0M7.209 36.006a1.23 1.23 0 1 1-2.46 0 1.23 1.23 0 0 1 2.46 0M62.691 26.87c0 1.412.922 2.075 1.99 2.075 1.066 0 1.99-.663 1.99-2.076V16.03c0-1.413-.924-2.076-1.99-2.076-1.068 0-1.99.663-1.99 2.076v10.84zm-2.94-10.84c0-3.346 2.536-5.018 4.93-5.018 2.392 0 4.93 1.672 4.93 5.017v10.84c0 3.345-2.538 5.016-4.93 5.016-2.394 0-4.93-1.67-4.93-5.016V16.03z" fill="#FFF"/><path d="M125.492 17.096h-.057l-1.442 7.438h2.94l-1.441-7.438zm-1.24-5.91h2.45l4.585 20.565h-2.941l-.865-4.45h-4.007l-.865 4.45h-2.941l4.584-20.565zM134.23 13.954h-3.403v-2.768h9.745v2.768h-3.402v17.798h-2.94zM143.14 11.186h8.764v2.768h-5.823v6.025h5.074v2.768h-5.074v6.026h5.823v2.978h-8.764zM164.357 17.096h-2.94v-.663c0-1.355-.577-2.48-2.076-2.48-1.615 0-1.99 1.298-1.99 2.653 0 1.585.144 2.133 1.672 2.739l2.25.894c2.594.98 3.084 2.623 3.084 5.62 0 3.46-1.269 6.027-5.074 6.027-2.854 0-5.017-2.105-5.017-4.872v-1.096h2.941v.923c0 1.067.577 2.104 2.076 2.104 1.99 0 2.133-1.182 2.133-3.056 0-2.191-.259-2.537-1.7-3.113l-2.106-.865c-2.537-1.038-3.2-2.71-3.2-5.277 0-3.113 1.672-5.621 5.046-5.621 2.94 0 4.901 2.364 4.901 4.64v1.443z" fill="#231F20"/><path d="M19.704 27.129c0 2.537-2.047 4.757-4.67 4.757-2.248 0-4.844-1.095-4.844-4.843V15.741c0-2.681 1.931-4.728 4.787-4.728 2.71 0 4.727 2.047 4.727 4.901v1.153h-2.94v-.98c0-1.153-.692-2.133-1.816-2.133-1.47 0-1.816 1.009-1.816 2.392v10.495c0 1.182.46 2.105 1.787 2.105.806 0 1.845-.462 1.845-2.076v-1.01h2.94v1.269zM32.38 27.014a4.75 4.75 0 0 1-4.758 4.786 4.75 4.75 0 0 1-4.757-4.786V11.1h2.94v15.626c0 1.44.78 2.133 1.817 2.133 1.038 0 1.816-.692 1.816-2.133V11.1h2.941v15.914zM45.429 17.096h-2.941v-.663c0-1.355-.576-2.48-2.076-2.48-1.614 0-1.99 1.298-1.99 2.653 0 1.585.145 2.133 1.673 2.739l2.249.894c2.595.98 3.085 2.623 3.085 5.62 0 3.46-1.27 6.027-5.074 6.027-2.854 0-5.017-2.105-5.017-4.872v-1.096h2.94v.923c0 1.067.577 2.104 2.077 2.104 1.989 0 2.133-1.182 2.133-3.056 0-2.191-.26-2.537-1.701-3.113l-2.104-.865c-2.537-1.038-3.201-2.71-3.201-5.277 0-3.113 1.673-5.621 5.046-5.621 2.94 0 4.9 2.364 4.9 4.64v1.443zM51.09 13.954h-3.402v-2.765h9.745v2.765h-3.402v17.798h-2.94zM72.588 11.186h2.825l3.777 10.869h.058l3.748-10.87h2.854v20.566h-2.941V19.23h-.057l-2.912 8.822h-1.471l-2.883-8.822h-.058v12.52h-2.94z" fill="#FFF"/><path d="M2.302 6.986a3.695 3.695 0 0 1 3.684-3.684h73.41L77.086 1h-71.1A5.992 5.992 0 0 0 0 6.986v28.968a5.992 5.992 0 0 0 5.986 5.986h112.186l-2.31-2.302H5.985a3.692 3.692 0 0 1-3.684-3.68V6.986z" fill="#FFF"/><path d="M101.278 20.93h-1.413v-6.977h1.528c2.307 0 2.307 1.586 2.307 3.518 0 2.046-.03 3.46-2.422 3.46m3.863-8.304c-1.01-1.067-2.191-1.442-3.806-1.442h-4.41V31.753h2.94v-8.055h1.5c2.162 0 3.459-.807 4.266-2.134.692-1.124.837-2.335.837-4.122 0-2.45-.318-3.749-1.327-4.815" fill="#FEFEFE"/><path d="M101.278 20.93h-1.413v-6.977h1.528c2.307 0 2.307 1.586 2.307 3.518 0 2.046-.03 3.46-2.422 3.46m.057-9.746h-4.41v9.583l2.94 2.93h1.5c2.162 0 3.459-.807 4.266-2.134.692-1.124.837-2.335.837-4.122 0-2.45-.318-3.749-1.327-4.815-1.01-1.067-2.191-1.442-3.806-1.442" fill="#231F20"/><path fill="#FFF" d="M99.865 23.826v-.127l-2.94-2.931v10.985h2.94z"/><path fill="#231F20" d="M109.234 11.186h2.943v17.587h4.945v2.98h-7.888z"/></g></svg>