<svg id="Layer_1" data-name="Layer 1" xmlns="http://www.w3.org/2000/svg" viewBox="0 0 505.51 371.82"><defs><style>.cls-2{fill:#fff;}</style></defs><title>Artboard 1</title><g class="cls-1"><path class="cls-2" d="M63.65,43.53C38.49,67.47,13.91,90.9,9,95.56s-8.93,8.69-9,9,.47,1.11,1.22,1.82,19.16,20.42,40.85,43.77,67.87,73,102.63,110.42,72.25,77.71,83.36,89.6l20.11,21.69,2.41-2.53c2.41-2.53,69.77-71.86,131.75-135.62,19-19.56,53-54.6,75.61-77.82s42.51-43.77,44.36-45.59,3.24-3.56,3.2-3.83S480.35,82.13,449.69,53L394,0H251.69L109.36,0ZM246.72,3.75c.2.59-72.18,97-72.81,97-.28,0-1.46-1.46-2.61-3.28-24-36.86-60-93.27-59.81-93.71s8.3-.59,67.63-.51C225.78,3.32,246.6,3.48,246.72,3.75Zm143.36,0c.32.79-63.45,100.54-64.24,100.54-.51,0-10.31-12.84-64.91-85.17-6.28-8.3-11.3-15.25-11.14-15.49s21.1-.43,70.16-.43C380.4,3.16,389.88,3.24,390.08,3.71Zm3.4,6.6c.36,1.19,6.36,22.91,13.31,48.35,9.56,34.84,12.52,46.26,12.17,46.54s-12,.24-26.74.12c-14.46-.12-34.21-.24-43.93-.24-15.49,0-17.7-.08-17.7-.59,0-.91,61.31-96.63,61.79-96.47A5.3,5.3,0,0,1,393.48,10.31Zm55,46.18c27.93,26.55,50.76,48.43,50.76,48.63s-15,.36-37.89.36c-29.83,0-38-.12-38.24-.51S396.56,9.28,396.56,8.34c0-.28.24-.43.59-.32S420.58,30,448.51,56.49Zm-307.67,0c19.56,30.26,30.5,47.64,30.26,47.88s-16.75.28-45.11.12l-44.76-.28.2-1.22c.2-1,27.1-92.13,27.73-93.78a.54.54,0,0,1,.63-.4C110,8.85,124,30.3,140.84,56.45Zm-35.59-46.1c-.16.71-6.44,22.08-14,47.52L77.52,104.1l-32.95.12c-31.92.12-38.71,0-38.71-.71,0-.47,98.72-94.42,99.24-94.42C105.33,9.09,105.41,9.56,105.25,10.35ZM247,57.72v46.77l-35.24.12c-31.21.08-35.28,0-35.28-.51,0-.87,69.57-93.47,70.08-93.31C246.91,10.9,247,24,247,57.72ZM286.93,59c22,29.12,34.13,45.51,33.9,45.75-.47.47-69.21.32-69.92-.16-.4-.24-.51-10-.51-46.26,0-25.24.12-46.06.28-46.22s.67.16,1.15.63S268.09,34.05,286.93,59ZM78.86,108.24c.36.43,36.7,56.49,80.79,124.56,47.84,73.91,79.92,123.77,79.6,123.89s-1.19-.63-2.09-1.62-17.78-19.16-37.57-40.45C39.35,142.34,7.83,108.4,7.83,108s7.07-.51,35.16-.51C77.83,107.45,78.15,107.45,78.86,108.24Zm93.07,0c.36.36.79,1.94,16.59,57.48,12.76,45,27.42,96.59,41.76,147.08,5.65,19.91,10.39,36.7,10.51,37.29s0,1.11-.16,1.11a62.29,62.29,0,0,1-4.9-7c-2.53-3.83-37.85-58.43-78.54-121.28S83.32,108.36,83.4,108.09c.16-.43,8.22-.47,44.21-.32C151.79,107.85,171.74,108.09,171.93,108.24Zm75,.24c.47.32.4,247.74-.08,248.05-.2.12-.55-.16-.79-.67s-8.1-28.13-17.54-61.35c-16.32-57.44-22.56-79.48-43.69-153.79-5-17.66-9-32.32-8.85-32.55s10-.36,35.44-.16C230.76,108.16,246.72,108.36,246.91,108.48Zm76.09.28c.28.32-.75,4.46-3.67,14.5-2.25,7.7-18,61.94-35,120.49-35,120.77-33.11,114.25-33.62,114s-.51-248.8-.08-249.2c.12-.16,16.39-.28,36.07-.28C314.94,108.24,322.68,108.36,323,108.76Zm63.8-.12c26.11,0,30.73.08,30.93.55s-14,22.08-87,131.67c-13.47,20.27-35.44,53.29-48.79,73.4s-24.41,36.54-24.57,36.54-.32-.28-.32-.63,8.53-30,18.92-65.85,26.07-89.87,34.8-120c12.56-43.42,16-54.87,16.71-55.47.83-.71,1.5-.75,14.7-.47C349.86,108.52,369.89,108.64,386.8,108.64Zm111,.79c.16.16-15.29,16.39-34.37,36-64.95,66.76-129.1,132.78-165.61,170.39-20.07,20.62-36.82,37.77-37.25,38.08s-.75.36-.75.12,11.34-17.46,25.16-38.28l42.19-63.52c56.22-84.62,95.17-143,95.56-143.32C423.34,108.48,497.38,109,497.85,109.43Z"/></g></svg>