<svg id="Layer_1" data-name="Layer 1" xmlns="http://www.w3.org/2000/svg" xmlns:xlink="http://www.w3.org/1999/xlink" viewBox="0 0 482.91 243.79"><defs><style>.cls-1{fill:none;}.cls-2{clip-path:url(#clip-path);}.cls-3{opacity:0.53;}.cls-4,.cls-5{fill:#000;}.cls-4{fill-rule:evenodd;}</style><clipPath id="clip-path"><rect class="cls-1" x="4.91" y="-147.5" width="478" height="478"/></clipPath></defs><title>heritage-background</title><g class="cls-2"><g class="cls-3"><path class="cls-4" d="M193.1,34.27c2.69-1.18,3.83.64,3.92.95,1.2,4.36-8.11,5.76-14.17,3.1-16.76-7.36-3.51-17.69,18-16.81,19.56.8,47.3,11.62,39,28.17-9.57,19.09-55,23.47-85.57,14.7-13.63-3.91-24.35-9.49-29.17-15.52-2.67-3.33-4.94-15.5-6.11-18.4-2.21-5.49,1.2.84,8.73,8,.35,5.36,6.21,16.7,26.14,22.69,26.18,7.86,68.49,7.31,78-11.63,8.32-16.59-29.66-25.43-43.92-21.61-9.9,2.65-9.23,7.09-4.78,9.41C188.5,40.14,196.44,37.91,193.1,34.27Z"/><path class="cls-4" d="M127.67,36.37C119.33-2-.59-16.45-29.1,24.38-47,50,5.3,73,41.64,67.82c54-7.71,37.72-43.65-3.48-43.82C6.46,24.38,3.9,42.57,16.23,49.22c7.79,4.2,22.44,5.9,31.19,2.54,8.53-3.28,12.37-8.52,9.51-13.12-4-6.43-17.06-10.29-26-6.19-6.67,3.06-.65,9.89,7.84,8.18,4.3-2.46-3.89-3.83-6.68-3.08-2.56.69-3-3.26-.43-4.45,9.72-4.45,21.53.18,24.5,6,2.17,4.28-1.3,9.08-9.18,12.12-8.75,3.36-22.2,1.86-30-2.34C4.63,42.26,11.26,26.65,40.64,26.5c37.37,1.44,51,33.08.05,40.61C4.44,72.46-44.89,49.33-28.82,25.2c24-36,127.11-28.55,147.64,4.68,2.72,4.41,3.32,8.95,4.72,14.3C123.89,45.53,128.92,42.16,127.67,36.37Z"/><path class="cls-4" d="M50.12.2C70,2,87.95,6.38,98.43,11.57c20.21,10,29.76,25.5,24.68,38.75C114,74.05,67.55,82.55,42.34,79.06,21.44,76.17,16.11,63.34,34.9,59.85,51.57,56.77,64.39,66,52.19,67.43c-6.34,0-2.24-3-1.58-5.33C51,60.58,41.18,59.33,35,60.46c-12.14,2.05-11.89,12.76,9,15.65,25.22,3.49,67.39-2.94,76.48-26.67,5.08-13.25-4.42-27.8-24.63-37.82C85.32,6.37,65.66,2.89,46.39,1.3,42.57,1,47.67.16,50.12.2Z"/><path class="cls-4" d="M239.6,46.14c-6.48,8.6-24.75,7.74-34.31,2.73-7.18-3.76-12.06-11.31-.24-19.06,42.71-28,121.17,23,37.7,47.38C204,88.5,142.68,80.92,110.28,66.53,97.76,61,85.59,54.08,77,46.2c-1.55-2-1.18-4.42,1.46-1.78,8.58,8.08,21,15.17,33.8,20.84,32.29,14.33,87,20.07,124.54,9.08,76.24-22.31,7-66.5-29.55-43.53-7.08,4.46-5.81,11.29.06,15.3,7.09,4.84,20.27,5.94,25.79-1.33C234.37,43.15,240.55,42.74,239.6,46.14Z"/><path class="cls-4" d="M25.32,82C61.24,72.85,90.68,64.88,134.2,64c22.49-.44,61.07,1.11,94.94,7.57,30.64,5.85,58.6,18.58,92,20.44,15.85.89,28.65-.92,37.06-5,22.31-10.79,17.29-26.68,4-33.21-21.76-10.71-53.39-2.9-49.13,9.5,3.93,11.42,25.59,10.42,30.77,4.44,5.87-6.77-5.24-13.47-17.33-10.25-8.42,1.6,1.78-9.78,21.91-5.9,39.84,7.67,24.73,38.43-14.85,39.48a139,139,0,0,1-29.6-2.55c-25.61-4.82-48.91-15-75-18.88C153.87,58.52,100.05,58,25.32,82Z"/><path class="cls-4" d="M76.47,47.65c3.09,0,5.61-1.33,5.61-3s-2.52-3-5.61-3-5.61,1.33-5.61,3S73.38,47.65,76.47,47.65Z"/><path class="cls-4" d="M193.1,206.55c2.69,1.18,3.83-.64,3.92-.95,1.2-4.36-8.11-5.76-14.17-3.1-16.76,7.36-3.51,17.69,18,16.81,19.56-.8,47.3-11.62,39-28.17-9.57-19.09-55-23.47-85.57-14.7-13.63,3.91-24.35,9.49-29.17,15.52-2.67,3.33-4.94,15.5-6.11,18.4-2.21,5.49,1.2-.84,8.73-8,.35-5.36,6.21-16.7,26.14-22.69,26.18-7.86,68.49-7.31,78,11.63,8.32,16.59-29.66,25.43-43.92,21.61-9.9-2.65-9.23-7.09-4.78-9.41C188.5,200.68,196.44,202.91,193.1,206.55Z"/><path class="cls-4" d="M127.67,204.44c-8.33,38.42-128.26,52.83-156.77,12C-47,190.77,5.3,167.8,41.64,173c54,7.71,37.72,43.65-3.48,43.82C6.46,216.44,3.9,198.25,16.23,191.6c7.79-4.21,22.44-5.9,31.19-2.54,8.53,3.28,12.37,8.52,9.51,13.12-4,6.43-17.06,10.29-26,6.19-6.67-3.05-.65-9.89,7.84-8.18,4.3,2.46-3.89,3.83-6.68,3.08-2.56-.69-3,3.26-.43,4.45,9.72,4.45,21.53-.18,24.5-6,2.17-4.28-1.3-9.08-9.18-12.12-8.75-3.36-22.2-1.86-30,2.34-12.33,6.65-5.69,22.27,23.69,22.42,37.37-1.44,51-33.08.05-40.61-36.25-5.36-85.59,17.78-69.52,41.91,24,36,127.11,28.55,147.64-4.68,2.72-4.41,3.32-8.95,4.72-14.3C123.89,195.29,128.92,198.66,127.67,204.44Z"/><path class="cls-4" d="M50.12,240.62c19.85-1.82,37.83-6.18,48.31-11.38,20.21-10,29.76-25.5,24.68-38.75-9.1-23.73-55.55-32.23-80.77-28.74C21.44,164.64,16.11,177.48,34.9,181c16.67,3.09,29.49-6.11,17.29-7.58-6.34,0-2.24,3-1.58,5.33.43,1.53-9.44,2.77-15.57,1.64-12.14-2.05-11.89-12.76,9-15.65,25.22-3.49,67.39,2.94,76.48,26.67,5.08,13.25-4.42,27.8-24.63,37.82-10.59,5.25-30.24,8.72-49.51,10.31C42.57,239.78,47.67,240.66,50.12,240.62Z"/><path class="cls-4" d="M239.6,194.68c-6.48-8.6-24.75-7.74-34.31-2.73-7.18,3.76-12.06,11.31-.24,19.06,42.71,28,121.17-23,37.7-47.38C204,152.32,142.68,159.9,110.28,174.28,97.76,179.84,85.59,186.74,77,194.62c-1.55,2-1.18,4.42,1.46,1.78,8.58-8.08,21-15.17,33.8-20.84,32.29-14.33,87-20.07,124.54-9.08,76.24,22.31,7,66.5-29.55,43.53-7.08-4.46-5.81-11.29.06-15.3,7.09-4.84,20.27-5.94,25.79,1.33C234.37,197.67,240.55,198.08,239.6,194.68Z"/><path class="cls-4" d="M25.32,158.81c35.92,9.15,65.36,17.13,108.87,18,22.49.44,61.07-1.11,94.94-7.57,30.64-5.85,58.6-18.58,92-20.44,15.85-.89,28.65.92,37.06,5,22.31,10.79,17.29,26.67,4,33.21-21.76,10.71-53.39,2.9-49.13-9.5,3.93-11.42,25.59-10.42,30.77-4.44,5.87,6.77-5.24,13.47-17.33,10.25-8.42-1.6,1.78,9.77,21.91,5.9,39.84-7.67,24.73-38.43-14.85-39.48a139,139,0,0,0-29.6,2.55c-25.61,4.82-48.91,15-75,18.88C153.87,182.3,100.05,182.78,25.32,158.81Z"/><path class="cls-4" d="M76.47,199.11c3.09,0,5.61-1.33,5.61-3s-2.52-3-5.61-3-5.61,1.33-5.61,3S73.38,199.11,76.47,199.11Z"/><path class="cls-4" d="M422.65,122c62.5,10.66,81.39,66,9.08,80.15-48.48,9.49-91.87-18.22-82.06-37.45,14.57-28.57,82.44-20,82.76,1.84-.7,16.79-35.06,18.14-47.62,11.61-7.94-4.13-11.15-11.88-4.79-16.51,6.19-4.52,16.09-6.55,24.79-5,12.15,2.12,19.44,9,11.7,13.77-5.77,3.53-18.68.34-15.45-4.15,4.66-2.28,7.23,2.06,5.81,3.54s6.15,1.61,8.4.23c8.4-5.15-.34-11.4-11.42-13-8.08-1.15-17.16.69-22.88,4.86-6.35,4.63-3.52,11.75,4.42,15.88,12.57,6.53,42.06,3,42.34-12.54-2.72-19.79-62.48-27-76.7,0-10.12,19.19,33.58,45.31,79.16,36.81,68-12.69,53.93-67.29-8.83-78.16-8.33-1.44-16.9-1.76-27-2.5C391.78,121.17,406.82,119.32,422.65,122Z"/><path class="cls-4" d="M477.41,160.22c-3.43-10.51-11.67-20-21.49-25.58-18.93-10.7-48.17-15.76-73.19-13.07-44.81,4.82-60.87,29.41-54.28,42.76,5.46,11.06,29.71,13.88,36.28,3.93,5.83-8.82-11.54-15.61-14.31-9.15,0,3.35,5.67,1.18,10.07.84,2.88-.23,5.24,5,3.1,8.24-3.88,6.42-24.1,6.29-29.56-4.77-6.59-13.35,5.56-35.68,50.38-40.49,25-2.69,52.51,2.34,71.44,13,9.92,5.6,16.48,16,19.48,26.21C475.83,164.22,477.48,161.52,477.41,160.22Z"/><path class="cls-4" d="M422.65,140.77c62.5-10.66,81.39-66,9.08-80.15-48.48-9.49-91.87,18.21-82.06,37.45,14.57,28.57,82.44,20,82.76-1.84-.7-16.79-35.06-18.14-47.62-11.61-7.95,4.13-11.15,11.88-4.79,16.51,6.19,4.52,16.09,6.55,24.79,5,12.15-2.12,19.44-9,11.7-13.77-5.77-3.53-18.67-.34-15.45,4.15,4.66,2.28,7.23-2.06,5.81-3.54s6.15-1.61,8.4-.23c8.4,5.15-.34,11.4-11.42,13-8.08,1.15-17.16-.69-22.88-4.86-6.35-4.63-3.52-11.75,4.42-15.88,12.57-6.53,42.06-3,42.34,12.54-2.72,19.79-62.47,27-76.7,0-10.12-19.19,33.58-45.31,79.16-36.81,68,12.69,53.93,67.29-8.83,78.16-8.33,1.44-16.9,1.76-27,2.5C391.78,141.62,406.82,143.47,422.65,140.77Z"/><path class="cls-4" d="M477.41,102.56c-3.43,10.51-11.67,20-21.48,25.58-18.93,10.7-48.17,15.76-73.2,13.07-44.81-4.82-60.87-29.41-54.28-42.76,5.46-11.06,29.71-13.88,36.29-3.93,5.83,8.82-11.54,15.61-14.32,9.15,0-3.35,5.67-1.18,10.07-.84,2.88.23,5.23-5,3.1-8.24-3.88-6.42-24.11-6.29-29.56,4.77-6.59,13.35,5.56,35.68,50.37,40.49,25,2.69,52.51-2.34,71.44-13,9.91-5.61,16.48-16,19.48-26.21C475.83,98.57,477.48,101.27,477.41,102.56Z"/></g><path class="cls-5" d="M113.4,85.33c-10.58,16.21-17,21.84-34.22,30.73-3.94,5.63-8.78,10.47-12.38,16.32-3.49,5.63-5.63,12-8.67,17.9-1.35,2.59-3,5.07-4.28,7.77-2,4.28-9.34,23.86-9.34,27.69,0,3.49.9,6.87.9,10.36s0,4.05-2.93,5.85a2.1,2.1,0,0,1-.79.22,2.58,2.58,0,0,1-2.36-2.59c0-1.35.68-2.7.68-4.05,0-1.91-.45-3.71-.45-5.63A54.09,54.09,0,0,1,45,166.49c1.24-2.59,2.81-5,4.05-7.54,3.94-8.33,6.42-17.45,11.59-25.21,3.15-4.73,7-8.89,10-13.62-6.53,2.14-13.4,2.59-20.15,3.26-3.6,6.87-9.23,12.27-14.3,18-1.8,2-3.38,4.05-5.07,6.08-1.58,1.8-3.26,3.15-5.85,3.15-4.39,0-6.19-6.19-6.19-9.68a31.7,31.7,0,0,1,1.13-6.53c1.13-5.85,1.24-10.92,6.75-14.63,3.6-2.36,9-2.7,13.28-2.7,2.7,0,5.29.23,8,.34,5-6.75,18.12-27.92,18.12-35.68,0-2-4.84-3.15-6.42-3.15-9.12,0-11.14,7.32-12.83,7.32a1.42,1.42,0,0,1-1.35-1.58c0-7.77,7-11.37,14-11.37.9,0,1.69-.67,2.59-.67,4.17,0,9.12,8.1,9.12,11.82,0,5.18-14.86,27.46-18.24,33.66,1.69.11,3.49.11,5.18.11,4.73,0,12.5-.79,16.1-4.05,2.25-1.91,2.36-4.84,3.49-7.32,2.48-5.29,6.19-10.13,9.46-15,7-10.36,9.12-16.66,21.95-20.94a11.83,11.83,0,0,1,3.94-.9c3.38,0,4.84,2.14,4.84,5.29C118.13,78.91,115.42,82.18,113.4,85.33ZM41.24,121.24c-11.37,0-13.4,2.48-16.66,12.95a10.68,10.68,0,0,0-.79,3.26c0,2.48.79,5.29,3.83,5.29a2.86,2.86,0,0,0,1.91-.45c.9-.56,15.2-18.91,16.55-21ZM111.82,74.3c-.9,0-1.69,1-2.25,1.58-2.59,2.48-5.74,4.28-8.1,6.87C94.37,90.51,89.53,100.19,83.91,109c11.26-6,18.69-15.53,25.89-25.78,1.69-2.36,3.38-4.28,3.38-7.32A1.43,1.43,0,0,0,111.82,74.3Z"/><path class="cls-5" d="M116.21,142.62c-4.05,3.38-11.71,5.52-17,5.52-5.74,0-7.43-5.07-7.65-9.91-1.35,1.35-4.28,4.17-6.3,4.17-.11,0-.22,0-.22-.22,0-.79,6.08-5.18,7.09-6.42,1.91-2.36,1.69-5.18,4.05-7.43,4.05-3.83,7-6.64,12.83-6.64,2.93,0,7.32.34,7.32,4.28s-9.91,10.69-13.28,12.16c-1.69.68-5.85,2-7.09,3.26a1,1,0,0,0-.23.79c0,2.14,3,2.93,4.84,2.93,7.65,0,17.33-5.63,18.35-5.63.22,0,.34.23.34.45C119.25,140.71,116.88,142.06,116.21,142.62ZM108,125.85a11.74,11.74,0,0,0-4.84,1.13c-2,1.13-6.42,6.53-6.42,8.89,0,.56.45.67.9.9,2.14,0,13.06-5.85,13.06-8.89C110.69,126.53,109.12,125.85,108,125.85Z"/><path class="cls-5" d="M143.56,145c-1.46.68-3.15.68-4.73,1.24-4.39,1.46-8.33,4.17-13.17,4.17a1.94,1.94,0,0,1-1.8-1.8c0-1.24,7.32-10.69,8.55-12.27,0-.11.23-.68.23-.79a2.7,2.7,0,0,0-2.59-2.59c-3.38,0-9.46,9.46-13.62,9.46-.11,0-.23-.22-.34-.34l.45-.9c1.8-1.35,3.71-2.48,5.52-3.94,4.84-3.83,8.44-11.26,15.42-11.26a3.29,3.29,0,0,1,3,3.15c0,6.19-7.09,11-7.09,15.42,0,.56.67.45,1,.45,5.29,0,9.23-1.91,13.51-4.62a12.5,12.5,0,0,1,3.83-2c0,.22.11.45.11.67C151.89,140.82,145.13,144.2,143.56,145Z"/><path class="cls-5" d="M158.19,146.11c-.9,0-1.69-1.46-1.69-2.25a14.47,14.47,0,0,1,1.8-6.42c-1.46.56-10,4.84-10.47,4.84a1.31,1.31,0,0,1-1.13-.45c.9-1.58,15.31-8.22,18.35-10.69,1-.9,3-3.49,4.39-3.49a1.11,1.11,0,0,1,1.13,1c0,1.69-9.57,8.1-9.68,12.16a1.69,1.69,0,0,0,1.58,1.24c3.26,0,5.29-2.36,8.22-3.38l.67.23C170.23,141.16,160.67,146.11,158.19,146.11Zm17.56-20.94c-3.6,0-4.62-9.12-4.62-11.82,0-2.36,2.59-2.59,4.39-2.59a1.2,1.2,0,0,1,1,.79c0,2.59-1.69,5-1.69,7.54,0,2.36,1.69,4.17,1.69,5.18A.8.8,0,0,1,175.75,125.18Z"/><path class="cls-5" d="M343.47,100.19A411.46,411.46,0,0,1,298,104.46c-17.56.67-34.89,4.5-52.45,4.5-9,0-18-1.46-27-2.14-9.79,5.63-15.87,15.65-23.41,23.75a168.1,168.1,0,0,1-13.85,12.95c-3.26,2.81-14.07,14.86-17.56,14.86-1.24,0-2.25-.56-2.25-1.91,0-2.14,1.24-3.26,2.7-4.62,3.94-3.6,7.65-7.32,12.16-10.24,3.94-2.59,6.42-6.64,9.68-9.91,2-2,4.39-3.83,6.3-6,5.29-5.85,9.34-12.72,14.52-18.57-9.34-2.36-18.8-4.5-28.48-4.5-6,0-11.82-1.35-17.79-1.35-4.84,0-31.74.23-31.74,6.3,0,2.48,4.28,2.14,5.07,4.73a1.92,1.92,0,0,1-1.46.79c-2.48,0-12.16-3.71-12.16-6.53,0-3.38,11.93-5.4,14.63-6,7.88-1.58,15.87-1.46,23.86-1.46,9.68,0,19.14,1.35,28.82,1.35,7.88,0,15.42,2.59,23.19,3.49,3.83-3.26,8.1-5.74,12.16-8.78,6.19-4.61,12.38-12.61,20.71-12.61,1.24,0,4.17.56,4.17,2.25,0,5.29-21.72,16.1-26.45,19.25,7.77.22,15.42,1.91,23.19,1.91,10.13,0,20.15-2,30.28-2.93,7.88-.67,15.65-.45,23.53-.79,7.54-.34,15.08-1.35,22.51-2.36,6.75-.9,13.62-1.58,20.37-2.81,4.05-.79,8-2.25,12.16-2.25,1.35,0,3.38.11,3.38,1.91S345.38,99.85,343.47,100.19Z"/><path class="cls-5" d="M227.19,144.2c-1.8,0-6.19-.67-7.54-1.8-.45-.45-.79-.9-1.46-.9-4.28,0-7.32,6.87-14.18,6.87-3.38,0-7.43-.45-7.43-4.73,0-3.26,15.87-17,19.36-17.67a8.53,8.53,0,0,1,1.69-.11c3,0,3.49,1.8,5,1.8,2.25,0,3.94-2.25,5.85-2.25.9,0,2.48,0,2.48,1.24,0,2.36-6.53,6.75-6.53,10.24a4.2,4.2,0,0,0,4.39,4.39c2.48,0,3.6-1.8,5.74-2.48l.56.45C234.73,140.94,228.88,144.2,227.19,144.2Zm-9-14.75a4.63,4.63,0,0,0-1.24.11c-.67.22-12.72,10.24-12.83,10.69a6.36,6.36,0,0,0-.34,2c0,1.46,1.24,1.91,2.48,1.91,2.93,0,14.3-10,14.3-12.94C220.55,130,219.19,129.45,218.18,129.45Z"/><path class="cls-5" d="M275,140.94c-4.17,2.59-9.23,2.93-13.06,6s-7.88,6-11.71,9.12a401.46,401.46,0,0,0-34.78,33c-3.94,4.17-7.65,8.33-11.93,12.16-3.38,3-7.32,5.74-10.13,9.34a48.76,48.76,0,0,1-3.71,4.73c-1.12,1.13-8.67,7.09-9.91,7.54a23.1,23.1,0,0,1-7.32,1.13c-.9,0-3.15-1.46-3.15-2.48,0-1.69,5.29-8.78,6.53-10.36,18-22.74,45.25-44.24,70.69-57.52,2-1,4.5-2.93,4.5-5.52a3.6,3.6,0,0,0-1.58-.34c-4.28,0-8.1,2-12.38,2a5.06,5.06,0,0,1-2.59-.45,6.6,6.6,0,0,1-.23-1.46c0-1.91,4.05-7.32,5.4-8.89-2,.45-8.44,3.83-9.12,3.83-.11,0-.23-.11-.34-.11a9.71,9.71,0,0,1,3.71-3.38c3.49-1.91,7.43-2.59,11-3.94,5.29-1.91,12.49-4.73,18.12-4.73.56,0,2.59.23,2.59,1,0,1.69-4.73,5.63-6.3,6.19-2.7,1-11.37.79-11.37,5,.11.45.56.67.9.9,3.26,0,7.32-2,10.36-1.35a21.39,21.39,0,0,1,6.53-.56,17.87,17.87,0,0,0,6.87-1c.79-.34,3.15-2,3.83-2s.56-.11.56.34S275.47,140.71,275,140.94Zm-39.17,20.49c-11.48,3.49-37,26.45-45.93,35.79-3,3.15-5.52,6.87-8.44,10.13-1.46,1.69-8.22,9.12-8.22,10.81,0,.9,1.8,1.46,2.48,1.46,2.81,0,17.22-12.16,19.81-14.75,6.64-6.87,13.06-13.85,19.92-20.49,4.17-3.94,8.55-7.65,12.61-11.82,1-1,8.67-9.57,8.67-10A1.34,1.34,0,0,0,235.85,161.42Z"/><path class="cls-5" d="M303.28,142.62c-4.05,3.38-11.71,5.52-17,5.52-5.74,0-7.43-5.07-7.65-9.91-1.35,1.35-4.28,4.17-6.3,4.17-.11,0-.22,0-.22-.22,0-.79,6.08-5.18,7.09-6.42,1.91-2.36,1.69-5.18,4.05-7.43,4.05-3.83,7-6.64,12.83-6.64,2.93,0,7.32.34,7.32,4.28s-9.91,10.69-13.28,12.16c-1.69.68-5.85,2-7.09,3.26a1,1,0,0,0-.23.79c0,2.14,3,2.93,4.84,2.93,7.65,0,17.33-5.63,18.35-5.63.22,0,.34.23.34.45C306.32,140.71,304,142.06,303.28,142.62Zm-8.22-16.77a11.74,11.74,0,0,0-4.84,1.13c-2,1.13-6.42,6.53-6.42,8.89,0,.56.45.67.9.9,2.14,0,13.06-5.85,13.06-8.89C297.76,126.53,296.18,125.85,295.06,125.85Z"/></g></svg>