<svg xmlns="http://www.w3.org/2000/svg" xmlns:xlink="http://www.w3.org/1999/xlink" viewBox="0 0 781.08 189.71"><defs><style>.cls-1{isolation:isolate;}.cls-3,.cls-4{fill-rule:evenodd;}.cls-4,.cls-6{fill:#fff;}.cls-5{fill:#c49a6c;}</style></defs><title>heritage-foreground</title><g class="cls-1"><g id="Layer_1" data-name="Layer 1">
<path class="cls-3" d="M570.4,101.47c2.69-.3,7.35-.11,10.36,1.18,1.69,1.61,4.64,2.59,5.18,4.88.2.36.55-.16.59.15,1.15,2.26,3,5.24,3.4,8.87.31,2.56,0,5.33.44,7-.06,5.18-1.06,10.74-3.11,14.35s-5.4,5.16-10.21,6.21a21.14,21.14,0,0,1-13.76-1.63,7.21,7.21,0,0,1-2.51-2.66,42.52,42.52,0,0,1-3-4.73c-1.08-2.62-1-6.38-1.48-9.76.7-1.7,0-4.28.15-6.21.08-.77.57-1.53.74-2.37a44.82,44.82,0,0,1,1.63-6.36c.9-2.46,2.21-3.54,3.7-5.47C565,103.58,567.12,101.48,570.4,101.47Z"/><path class="cls-3" d="M9.34.3C13.64-.27,19.75.15,24.72.15Q381.38.15,737,.3h30.32c6,0,9.55.41,12,3.25,1.39,1.63,1.78,3,1.78,5.77,0,52.93,0,105.73,0,159.16,0,5.24.37,10.3-1,14.05s-3.85,6.5-8.14,7c-4.79.5-10.12,0-15.24,0-247.83,0-494.66-.15-742.55-.15-6.08,0-9.31-.06-12-3.25-2.45-2.93-2.07-7.39-2.07-13V21.45C0,10.42-.59,1.6,9.34.3Zm604,40.38c-2.59-2.93-4.74-6.31-7.4-9.17a76.26,76.26,0,0,0-12.57-8.14c-1.57.12-3.08-1.7-4.88-1.33,0-.23,0-.51-.3-.44-9.12-1.43-18.55-2.4-27.22.15-7.54,2.22-15.59,5.38-19.82,10.65-.38.06-.45.44-.89.44a48.74,48.74,0,0,0-6.06,8.58,36.48,36.48,0,0,1-1.92,6.36c.08,3-.64,5.41-.74,8.14-.08,2.32-.13,4.84-.15,7.25,0,1.54.31,4.13.3,5.62-.08,10-.4,19.26-.59,29.73,0,.8.06,1.31,0,1.92-.35,3.42.18,7,0,10.06,0,.81-.43,1.59-.44,2.37,0,.15.43.3.44.44,0-.23-.17.41-.15.3-.44,2.76.09,5.07-.3,7.25,0-.08-.12-.17-.15,0,.2,0,.13.26.29.3-.56,9.58-.05,20.1,3.55,30.92,1.72,2.57,3.17,6.29,5.77,8.43.66,1.51,2.24,2.1,3,3.55.81.62,2,.83,2.37,1.92.77.16,1.26.73,1.78.74,0,.21-.24.25-.3.44,1.22.31,2.38.67,2.81,1.77.54,0,1.16.39,1.48.15.63,1.22,2,1,3,1.33.24.09.52.49.74.59a20,20,0,0,0,2.22.44,32.3,32.3,0,0,0,5.47,1.48,1.57,1.57,0,0,0,1-.15c.3,0,.29.4.59.44.53-.34,1,.1,1.63-.15,0,.29.69-.26.3.3a66,66,0,0,1,6.8,0c-.26-.52,2-.87,1.48-.15.66-.75,1.58-.25,2.07-.3s.75-.46,1.18-.44c.23,0,.49.33.74.3.42-.05.94-.65,1.33-.74.79-.18,2.33.11,3.55-.44a7.12,7.12,0,0,1,3.4-.89c1.76-1.21,6.38-2.19,8.28-4.29.51.55.52-.65,1.33-.3,3.36-2.74,6.91-6,9.91-8.58a3.24,3.24,0,0,1,1.63-2.07c1.52-2.72,3.48-5.28,4.73-7.84.25-2.27,1.32-2.89,1.48-5.33a8.9,8.9,0,0,0,1-2.81,68.51,68.51,0,0,0,1.48-13.9c.17-9.79-2.39-18.56-4.88-25.44-.9-.51-.81-1.57-1.18-2.37a43.75,43.75,0,0,0-4.88-7.54,23.35,23.35,0,0,0-7.69-6.66c-1.95-2-4.7-3.29-7.39-4.59-3-.86-5.92-2.11-9-2.51a45.5,45.5,0,0,0-18,1,5.91,5.91,0,0,1-3.4,1.33c.53-7.16-.58-17.07,1.48-24.55,2.51-4.36,6.33-7.86,12.13-8.14A21.63,21.63,0,0,1,591,53.84c.88,1.7,2,2.65,2.51,4.44,2.92.9,5.39-2.89,8.58-3.25.2-.09,0-.57.3-.59,5-2.66,10.13-5,14.64-7.54C616.18,45.15,614.1,42.74,613.3,40.68ZM166.43,141.56c.08,0,.17-.12,0-.15-3.4.66-8.95,0-12.43.59-.23-.11-.22-.47-.59-.44s.35.4-.3.3c-5.5.13-8.88-.16-14.5.29,0-.21,0-.31-.3-.29-2.44.16-6.07,0-7.84,0-.73,0-1.42.45-1.92.44a1.33,1.33,0,0,1,.15-.3,12.57,12.57,0,0,0-1.92.15c-4.79-.06-9.67-.47-14.2,0-.58-.37-2.26-.18-3.11,0-.42-7.54.22-13.86,4.73-18,.46-.43,1.16-.61,1.63-1,2.75-2.52,5.71-5.08,9-6.36,0-.17,0-.42.15-.44,2.65-1.29,4.67-3.21,7.54-4.29,1.64-2.31,5-2.9,7-4.88,2.47-1.23,4.41-3,7-4.14,1.81-1.64,4.83-3.36,6.8-5.33,4.5-2.89,8-6.76,11.69-10.5,1-2.21,2.64-3.87,4-5.77,1.68-3.06,2.71-6.53,4.29-9.91-.27,0-.09-.5-.3-.59.43-.24.62-1.11.74-1.78a36.56,36.56,0,0,0-.15-12,20.62,20.62,0,0,1-.89-4,26.15,26.15,0,0,1-2.07-5.77c-1.32-1.29-1.52-3.71-3-4.88-.81-2.66-3.25-4.42-4.14-6.51-.63-.28-.68-.33-.89-.89-.8-.7-1.63-1.11-2.37-1.78a39.78,39.78,0,0,0-3.85-3.4c-3.2-2.2-7.26-3.18-10.95-5.18-6.85-2.24-18-2.9-25.44-.15-6.19,1.21-10.21,4.58-14.94,7.25a14.38,14.38,0,0,1-3.7,3.25C99,38.68,95.64,41.28,93.8,45.41c-.51.13-.61.67-1,.89a.83.83,0,0,0,.15.59c-.19,0-.2-.19-.44-.15a11.32,11.32,0,0,1-.15,1.18c-.66-.65-.15,1.12-1.18.59.33.81-.12,1.24-.59,1.63-.13.67.74.35.74.89-.23,0-.51,0-.44.3.45.36,1,1,1.78.59-.09.53.17.72.3,1,.55.16.48-.31.74-.44a162.21,162.21,0,0,0,18.34,9c.27-.25.64-.85.89-.3-.17-.4.3-.25.44-.44.48-.65.67-1.61,1.18-2.22.25-.3.67-.3.89-.59s.09-.84.3-1,.52-.06.59-.15,0-.56.15-.74.69-.24.89-.44c.59-.62,1-1.53,1.48-2.07a29.88,29.88,0,0,1,4.44-3.11,14.9,14.9,0,0,1,5.47-1.78c3-.56,5.48-.29,9.17.44,5.36,2.65,10.44,8.6,10.35,16.27,0,2.32-.37,3.23-.44,5.18a3.93,3.93,0,0,0-.74,2.37c-.4,1.1-2,2.63-2.07,4.29-1,.92-1.34,2.38-2.07,3.4-1.44,2-3.45,3.11-5.33,4.59A61.41,61.41,0,0,1,129.3,91a233.07,233.07,0,0,0-24.85,16.12,7.73,7.73,0,0,1-3.4,2.51c-3.91,3.54-8.43,7.43-11.69,12.13a24.41,24.41,0,0,0-3.55,6.36c-.3,1,0,1.35-.59,2.07.28,1.34-1.1,4.83-.44,7a14.14,14.14,0,0,0-.44,4.14c.19,8.74.27,17,.3,24.55,5.5,1.12,13.76-.13,19.67.59a29.22,29.22,0,0,1,6.51-.3c4.39,0,9.05.07,13.46.15,3.19.06,6.43-.1,9.47,0,6.69.23,13.29,0,20,0,5.47,0,11,.07,16.12-.29.15-.25,1.79-.28,1.92-1,.26-3.23.07-6.77.3-10.06-.7-.51-.21-1.51-.15-2.37.25-3.49-.19-6.92,0-9.61-.26-.45-.46.4-.59,0,.31-.08,0-.7.44-.3a4.63,4.63,0,0,0-.74-1C170.05,141.82,168.13,141.39,166.43,141.56ZM26.06,25.29c2.8,11.38,7.92,21.37,12.87,32.1,1.71.52,3.94-.07,5.33.74.24-.52.69,0,1.18-.3.08-.86.76-1.11,1.33-1.48,3.85-8,7.38-16.58,11.09-24.26a1,1,0,0,0-.15-.74c1.57-1.21,1.57-3.14,2.51-5-.21-.33-.36.19-.44-.15.53-.49.36-.43.3-1.33-2-1.15-5,0-7.1-.59-1.54,1.22-1.87,3-2.81,5-.59,1.28-1.52,2.64-1.33,3.55-2.44,3.28-3.31,8.13-5.62,11.54a105.27,105.27,0,0,1-5.62-13.16c-1-1.59-2.14-3.4-2.07-5.62-.41-.58-1.19-.63-.89-1.18C31.07,24.62,28.36,24,26.06,25.29Zm14.05,87.27c0-.18,0-.35.3-.29a8.07,8.07,0,0,0,3.11,0c.4.06,1.1,1.16,1.77.15-.18,0-.35,0-.3-.3a1,1,0,0,0,1-.74c.22-.65-.16-1.35-.15-1.92.09-4,.67-8.62.44-13.31-.3-6.07-.05-12.76-.3-18,0-.19-.47-.34,0-.74a11.55,11.55,0,0,0-2.22-1.48c-2,.6-4.22.35-5.92.89a30.24,30.24,0,0,0,.3,7.4c-.47,4.69-.2,9-.44,13.76.14.3.3.59.44.89-.48-.51-.39,1.08,0,1-.66.68-.12,2.06,0,2.66-.56,3.23-.35,6-.59,9.32C38.87,112.26,39.06,112.16,40.11,112.57Zm368.76-13.9c-.75-3.05.69-9.12-2.07-10.06-5.21-.34-11.77.26-17.75.74-.25,5-1.08,12-.3,16.57.69,0,1,.29,1.63.3-.06.21-.18.25,0,.44,3.92.13,7.74.44,12,.44,1.44-.93,4.32.22,5.47-.74.32-.27-.07-.87.59-.74.28-.55-.15-.85,0-1,.06.37.32-.25.3-.44-.29,0-.29.2-.44.3C409,102.44,407.92,100.12,408.87,98.66ZM55.34,135.2c-.38-.55-1.3-.57-1.48-1.33-.48.09-.69-.1-1-.15-3.23-3.2-10.37-3.53-15.38-2.22-3.89,1.73-7.55,3.69-9.32,7.54-.69.24-.65,1.23-1.33,1.48-1.37,3.32-2.11,9.34-.44,12.72-.08.3-.45.29-.15.59,1,3.9,3.41,6.35,6.06,8.58a35.91,35.91,0,0,0,6.8,2.37c2.84,0,5.64.34,9-.44a14.83,14.83,0,0,1,3.25-1.18c.69-1,1.93-1.14,2.81-1.92,1.14-1,1.66-2.69,3.11-3.4a27,27,0,0,0,.89-2.66c-2.41-1-4.56-3.51-7.25-3.25a9.73,9.73,0,0,1-9.47,3.4,7.15,7.15,0,0,1-5.77-5.77c.53-.73,0-1.41.15-2.22.25-2,1.84-3.25,2.81-4.59,2.47-1.05,6.47-1.81,9.17-.89a10.71,10.71,0,0,1,1.78,1c1.76.65,3.73-1.51,5.33-2.51.14-.09.45.09.59,0,.84-.55.86-1.36,1.48-1.92C56.61,137.18,55.64,136.53,55.34,135.2Z"/><path class="cls-4" d="M617,46.89c-4.51,2.52-9.63,4.88-14.64,7.54-.27,0-.09.5-.3.59-3.19.36-5.66,4.16-8.58,3.25-.54-1.79-1.63-2.73-2.51-4.44a21.63,21.63,0,0,0-17.31-7.69c-5.8.28-9.62,3.78-12.13,8.14-2.06,7.49-.95,17.39-1.48,24.55a5.91,5.91,0,0,0,3.4-1.33,45.5,45.5,0,0,1,18-1c3.11.4,6,1.66,9,2.51,2.7,1.3,5.45,2.54,7.39,4.59a23.35,23.35,0,0,1,7.69,6.66,43.75,43.75,0,0,1,4.88,7.54c.37.79.29,1.86,1.18,2.37,2.49,6.89,5,15.66,4.88,25.44a68.51,68.51,0,0,1-1.48,13.9,8.9,8.9,0,0,1-1,2.81c-.16,2.44-1.23,3.06-1.48,5.33-1.25,2.56-3.22,5.12-4.73,7.84a3.24,3.24,0,0,0-1.63,2.07c-3,2.62-6.55,5.84-9.91,8.58-.81-.36-.82.84-1.33.3-1.91,2.1-6.52,3.08-8.28,4.29a7.12,7.12,0,0,0-3.4.89c-1.22.55-2.76.26-3.55.44-.4.09-.91.69-1.33.74-.25,0-.51-.29-.74-.3-.43,0-.79.41-1.18.44s-1.41-.45-2.07.3c.55-.73-1.74-.37-1.48.15a66,66,0,0,0-6.8,0c.39-.55-.28,0-.3-.3-.67.25-1.1-.19-1.63.15-.3,0-.29-.4-.59-.44a1.57,1.57,0,0,1-1,.15,32.3,32.3,0,0,1-5.47-1.48,20,20,0,0,1-2.22-.44c-.22-.1-.5-.5-.74-.59-1-.36-2.32-.11-3-1.33-.32.24-.93-.16-1.48-.15-.43-1.1-1.59-1.46-2.81-1.77.05-.2.26-.23.3-.44-.52,0-1-.58-1.78-.74-.33-1.1-1.56-1.3-2.37-1.92-.72-1.45-2.3-2-3-3.55-2.6-2.15-4.05-5.86-5.77-8.43-3.6-10.82-4.11-21.33-3.55-30.92-.16,0-.1-.29-.29-.3,0-.17.15-.08.15,0,.38-2.18-.14-4.49.3-7.25,0,.11.13-.53.15-.3,0-.14-.45-.3-.44-.44,0-.78.4-1.56.44-2.37.18-3.1-.35-6.64,0-10.06.06-.62,0-1.12,0-1.92.2-10.47.51-19.69.59-29.73,0-1.49-.3-4.08-.3-5.62,0-2.41.06-4.93.15-7.25.1-2.72.82-5.17.74-8.14a36.48,36.48,0,0,0,1.92-6.36,48.74,48.74,0,0,1,6.06-8.58c.44,0,.5-.38.89-.44,4.23-5.27,12.28-8.43,19.82-10.65,8.66-2.55,18.09-1.58,27.22-.15.32-.07.28.21.3.44,1.8-.37,3.32,1.45,4.88,1.33a76.26,76.26,0,0,1,12.57,8.14c2.66,2.86,4.8,6.24,7.4,9.17C614.1,42.74,616.18,45.15,617,46.89Zm-54.43,58c-1.48,1.93-2.79,3-3.7,5.47a44.82,44.82,0,0,0-1.63,6.36c-.17.83-.66,1.6-.74,2.37-.2,1.93.55,4.51-.15,6.21.52,3.38.4,7.14,1.48,9.76a42.52,42.52,0,0,0,3,4.73,7.21,7.21,0,0,0,2.51,2.66,21.14,21.14,0,0,0,13.76,1.63c4.81-1.06,8.12-2.54,10.21-6.21s3-9.17,3.11-14.35c-.47-1.62-.13-4.39-.44-7-.44-3.63-2.25-6.61-3.4-8.87,0-.31-.4.21-.59-.15-.53-2.29-3.48-3.27-5.18-4.88-3-1.3-7.66-1.48-10.36-1.18C567.12,101.48,565,103.58,562.56,104.87Z"/><path class="cls-4" d="M171,141.56a4.63,4.63,0,0,1,.74,1c-.41-.4-.14.22-.44.3.13.4.33-.45.59,0-.19,2.7.25,6.12,0,9.61-.06.86-.55,1.85.15,2.37-.22,3.29,0,6.82-.3,10.06-.13.76-1.78.78-1.92,1-5.16.37-10.66.3-16.12.29-6.68,0-13.28.23-20,0-3-.1-6.27.06-9.47,0-4.41-.07-9.07-.2-13.46-.15a29.22,29.22,0,0,0-6.51.3c-5.92-.72-14.17.53-19.67-.59,0-7.56-.1-15.81-.3-24.55a14.14,14.14,0,0,1,.44-4.14c-.65-2.12.72-5.61.44-7,.63-.72.29-1.08.59-2.07a24.41,24.41,0,0,1,3.55-6.36c3.26-4.7,7.77-8.59,11.69-12.13a7.73,7.73,0,0,0,3.4-2.51A233.07,233.07,0,0,1,129.3,91a61.41,61.41,0,0,0,8.28-5.77c1.88-1.47,3.89-2.57,5.33-4.59.73-1,1.07-2.48,2.07-3.4.09-1.66,1.67-3.19,2.07-4.29a3.93,3.93,0,0,1,.74-2.37c.07-1.95.42-2.86.44-5.18.09-7.67-5-13.62-10.35-16.27-3.69-.73-6.12-1-9.17-.44a14.9,14.9,0,0,0-5.47,1.78,29.88,29.88,0,0,0-4.44,3.11c-.53.54-.89,1.45-1.48,2.07-.2.2-.71.22-.89.44s0,.54-.15.74-.5.06-.59.15-.08.74-.3,1-.64.29-.89.59c-.51.61-.71,1.57-1.18,2.22-.14.19-.62,0-.44.44-.25-.56-.61,0-.89.3a162.21,162.21,0,0,1-18.34-9c-.26.13-.19.6-.74.44-.12-.32-.38-.5-.3-1-.73.36-1.32-.23-1.78-.59-.07-.32.21-.28.44-.3,0-.54-.87-.22-.74-.89.47-.39.92-.82.59-1.63,1,.53.52-1.24,1.18-.59a11.32,11.32,0,0,0,.15-1.18c.24,0,.25.14.44.15a.83.83,0,0,1-.15-.59c.42-.22.53-.75,1-.89,1.84-4.13,5.2-6.73,7.54-10.35A14.38,14.38,0,0,0,105,31.8c4.73-2.66,8.75-6,14.94-7.25,7.47-2.75,18.59-2.1,25.44.15,3.68,2,7.74,3,10.95,5.18a39.78,39.78,0,0,1,3.85,3.4c.74.67,1.57,1.07,2.37,1.78.2.55.25.6.89.89.9,2.09,3.33,3.85,4.14,6.51,1.44,1.18,1.64,3.59,3,4.88a26.15,26.15,0,0,0,2.07,5.77,20.62,20.62,0,0,0,.89,4,36.56,36.56,0,0,1,.15,12c-.12.67-.3,1.54-.74,1.78.2.09,0,.57.3.59-1.58,3.38-2.6,6.85-4.29,9.91-1.36,1.9-2.95,3.56-4,5.77-3.66,3.74-7.18,7.61-11.69,10.5-2,2-5,3.69-6.8,5.33-2.55,1.15-4.49,2.91-7,4.14-2,2-5.32,2.57-7,4.88-2.87,1.07-4.89,3-7.54,4.29-.17,0-.12.27-.15.44-3.32,1.28-6.27,3.84-9,6.36-.46.43-1.17.61-1.63,1-4.52,4.19-5.15,10.5-4.73,18,.85-.18,2.52-.37,3.11,0,4.53-.47,9.41-.06,14.2,0a12.57,12.57,0,0,1,1.92-.15,1.33,1.33,0,0,0-.15.3c.5,0,1.2-.46,1.92-.44,1.76,0,5.39.16,7.84,0,.25,0,.28.09.3.29,5.62-.45,9-.16,14.5-.29.65.11-.12-.29.3-.3s.36.33.59.44c3.48-.57,9,.07,12.43-.59.17,0,.08.15,0,.15C168.13,141.39,170.05,141.82,171,141.56Z"/><path class="cls-4" d="M37.59,111.83c.24-3.34,0-6.09.59-9.32-.12-.6-.66-2,0-2.66-.39,0-.48-1.55,0-1-.14-.3-.3-.59-.44-.89.25-4.79,0-9.07.44-13.76a30.24,30.24,0,0,1-.3-7.4c1.7-.54,3.91-.28,5.92-.89A11.55,11.55,0,0,1,46,77.36c-.47.4,0,.54,0,.74.24,5.29,0,12,.3,18,.23,4.69-.35,9.36-.44,13.31,0,.58.37,1.28.15,1.92a1,1,0,0,1-1,.74c-.05.25.12.28.3.3-.67,1-1.37-.09-1.77-.15a8.07,8.07,0,0,1-3.11,0c-.25-.06-.28.12-.3.29C39.06,112.16,38.87,112.26,37.59,111.83Z"/><path class="cls-4" d="M34.63,24.41c-.3.55.48.6.89,1.18-.07,2.22,1.07,4,2.07,5.62a105.27,105.27,0,0,0,5.62,13.16c2.31-3.41,3.18-8.26,5.62-11.54-.18-.91.74-2.27,1.33-3.55.94-2,1.27-3.81,2.81-5,2.08.62,5.11-.55,7.1.59.06.91.24.84-.3,1.33.08.33.23-.18.44.15-.95,1.89-.95,3.82-2.51,5a1,1,0,0,1,.15.74c-3.72,7.68-7.25,16.28-11.09,24.26-.57.36-1.25.62-1.33,1.48-.5.32-.94-.22-1.18.3-1.38-.81-3.62-.22-5.33-.74C34,46.66,28.85,36.68,26.06,25.29,28.36,24,31.07,24.62,34.63,24.41Z"/><path class="cls-4" d="M408.28,104.43c.15-.1.15-.34.44-.3,0,.2-.23.82-.3.44-.15.19.28.48,0,1-.66-.13-.27.47-.59.74-1.15,1-4-.19-5.47.74-4.25,0-8.06-.31-12-.44-.18-.19-.06-.23,0-.44-.64,0-.94-.34-1.63-.3-.78-4.55,0-11.57.3-16.57,6-.48,12.54-1.08,17.75-.74,2.76.93,1.32,7,2.07,10.06C407.92,100.12,409,102.44,408.28,104.43Z"/><path class="cls-4" d="M57,138.45c-.61.56-.64,1.37-1.48,1.92-.14.09-.45-.09-.59,0-1.59,1-3.57,3.17-5.33,2.51a10.71,10.71,0,0,0-1.78-1c-2.7-.92-6.7-.17-9.17.89-1,1.34-2.56,2.61-2.81,4.59-.1.81.38,1.49-.15,2.22a7.15,7.15,0,0,0,5.77,5.77,9.73,9.73,0,0,0,9.47-3.4c2.69-.26,4.83,2.28,7.25,3.25a27,27,0,0,1-.89,2.66c-1.45.71-2,2.39-3.11,3.4-.88.78-2.12.9-2.81,1.92a14.83,14.83,0,0,0-3.25,1.18c-3.38.79-6.19.43-9,.44a35.91,35.91,0,0,1-6.8-2.37c-2.65-2.23-5.08-4.68-6.06-8.58-.3-.3.07-.29.15-.59-1.67-3.38-.92-9.4.44-12.72.68-.25.64-1.24,1.33-1.48,1.77-3.86,5.43-5.81,9.32-7.54,5-1.31,12.15-1,15.38,2.22.35,0,.56.23,1,.15.18.76,1.09.78,1.48,1.33C55.64,136.53,56.61,137.18,57,138.45Z"/><path class="cls-4" d="M363.16,110.94c3.22.25,6.88.31,10.21.3-.23,7.26.78,14.32-.15,21a6.39,6.39,0,0,1-4.88.15c-1.72.63-4.05-.11-6.51.3,0,5.14.06,11.93,0,17.75,0,4.13,0,8.08.15,12,0,1-.25,2.2-.15,3.25,0,.21.49.36,0,.59.84.44,0,1.14.15,1.63-.31.56-1.28.46-1.18,1-3.67-.61-8.77.17-12.72,0a81.18,81.18,0,0,0-8.58-.29c-.15-.46-.51-.09-.59-.15-1.56-1.28-.18-5.32-.89-7,.16-9.5.07-19.06,0-28.1-1.94.43-4.92-.28-5.92.29-.56.21-.28-.41-.74-.29-1.76,0-2.87.35-4.73,0-.12,0-.56.3-.59.29s.17-.28,0-.29c-.58-.06-1.53.29-2.51.29-.81,0-2.28-.65-2.37,0-2.78-.51-4.71,0-6.66,0-.61,0-1.27-.57-1.33,0-5.18-.25-11.6-.17-17,.15-1.54-.62-3.67-.25-4.73-.3-.35-.28-1.43.2-1.78.15s-.25-.29-.15-.29c-2,.09-2.73.75-3.85,0-.89-7.1-.16-17.62-.29-26.18,0-.17.27-.13.44-.15,0-1.18.6-1.82,1-2.66,2.87-5.54,6.54-13.92,10.21-20.27,1.1-1.9,2.05-4.13,3.11-5.92.58-1,1.09-2.22,1.63-3.25,1.81-3.5,3.61-7.19,5.47-10.5.92-1.64,2.19-4,3.25-5.92,3-5.35,5.74-11,8.88-16.27,2.45-5.27,5.22-9.1,7.4-14.2a64.68,64.68,0,0,0,4-7.1c.61-1.26.87-2.8,2.22-3.11,1.94-.44,6.17-.24,8.43-.15,2.92.12,5.91.16,8.87.15,5.19,0,10-.32,13.76.59a.7.7,0,0,1,.15.44c-.76-.54-.18.91.3.89-.87,1.53.56,4.28-.3,4.73.29,6.65-.7,15.2-.74,23.67,0,2,.13,4.45.15,5.77.07,4.07-.17,10.11-.3,15.38,0,1.79.38,3.66.3,5.33a3.62,3.62,0,0,0,.15,2.37C363.15,88.55,363.18,100.35,363.16,110.94ZM314.94,109c3.64-.06,6.48.16,10.65.15,4.72,0,9-.29,13.16-.44.06-15.07.14-30.67.3-44.52,0-3.56-.38-7.45-.15-10.95.06-.93.73-2.33.15-3.11-6.06,10.8-11.79,23.22-17.6,34.76C318.32,93,313.93,101.05,310.2,109,311.77,108.81,314.24,109.17,314.94,109Z"/><path class="cls-4" d="M214.61,26.7v.44c1.45-.53,4.47,0,6.21.15a2.71,2.71,0,0,1,1,0c.78.13,1.8-.3,2.81-.3.55,0,1,.41,1.48.44,1,.06,2.18-.34,3.25-.3,2.28.1,4.78.47,6.66,0,0,.3.66,0,.59.44.45-.62,1.49.23,1.92-.44,3.51.74,7.92.19,11.39.44.38,0,.18.11.15.3,1.79-.09,3.06-.77,4.59.44A15.27,15.27,0,0,1,256,30.55c1.34,2.08,3.2,4.62,4.73,6.8.11.15.06.52,0,.44.71,1,1.41,2.12,2.07,3.11s1.68,2.07,2.51,3.4c.35.56.5,1.31.89,1.92a34.6,34.6,0,0,1,1.92,3c2.11,4.68-4.79,6.73-6.21,10.06-5,4.64-10.26,9.07-14.64,14.35a84.32,84.32,0,0,0-8.43,7.69,1.76,1.76,0,0,0-1.48,1.18c-2.23,1.12-3.84,2.86-5.77,4.29,1.2.29,3.69-.5,4.88-.59.59.44,2.32.25,3,.44,2.72.82,7.28,1.84,10.21,3.4.32.17.45.58.74.74s.66,0,.89.15c0,0-.22.25-.15.3.76.55,2.37,1,2.51,1.77,1.22-.08,1.74,1.67,3.11,1.92.71.87,1.25,1.91,2.37,2.37a6.64,6.64,0,0,0,2.37,2.66,33.17,33.17,0,0,0,3.25,5.18,25.84,25.84,0,0,0,2.37,5.33,31.59,31.59,0,0,0,2.07,6.66c-.29.71.3,1.37.44,2.07.35,1.62.19,4,.59,6.07.22,1.13-.13,3,.3,4.14-.58.57-.3,2-.15,2.37-.77,1.24-.57,2.62-.74,4-.95,7.63-4.67,14.07-7.84,19.23a6.67,6.67,0,0,0-1.77,2.22c-.47-.07-.33.45-.89.3-1.63,2.62-3.84,3.47-5.77,5.77-2.33.43-2.66,1.61-4.88,2.37-.48,0-.1.88-.74.74,0-.14.18-.11.3-.15-.4-.37-1.14.39-1,.59a1.7,1.7,0,0,0-1.77.59h-1c-.83,1.1-3.32.52-4.14,1.63-.19-.15-.55-.14-.74-.3-2.65,1-7.36.43-10.21.74-.22,0-.29.29-.3.3-.34,0-1-.82-1,.15-1.88-1-3.28-.05-4.58-.74-.91.86-3.91-.72-5.77-.15.37-.53-.28.06-.44-.44-1.78-.4-3.53-.38-5.18-.89-.44-.13-.92-.64-1.33-.74s-.71.12-1,0-.76-.75-1.18-.89c-.2-.07-.45.21-.59.15a16.47,16.47,0,0,1-3.4-1.92c-.15.1-.15.34-.44.3a16.74,16.74,0,0,0-5-3.26c.1-.74-1.35-1.08-2.22-1.77s-2.15-2-2.22-2.07a5.51,5.51,0,0,1-1-.59c-.22-.23-.35-.86-.74-1.18-1.15-.94-2.61-2.22-1.63-3.85,6.57-4.37,13.49-9.17,20.56-13,.63.11.86.62,1.33.89.07,1.38,2.24,3.09,3.7,4a13.12,13.12,0,0,0,2.22.74c.21.09.36.49.59.59,1.23.53,2.83.47,3.85,1a.65.65,0,0,0,.59-.3c2.54,1.44,6,.49,8.88.74,1.19-.44,4.51-1.47,5.92-2.66,6.29-4.09,9.44-13.78,8.28-22.93a25.79,25.79,0,0,0-2.51-8.28,18.65,18.65,0,0,0-20-8.73,68.38,68.38,0,0,0-7.69,2.22,6.29,6.29,0,0,0-1,.89c-.65-.19-.66,0-1.18.15-1.81-1-2.84-2.68-4.14-4.59-1.58-2.3-2.91-4.15-4.59-6.36a46.53,46.53,0,0,1-4.59-6.51c-.8,0-.55-1.25-1-2.07,1.83-2.09,4.39-3.87,7.4-6.21.27,0,.09-.5.3-.59C218.23,71.68,228.15,62,239,53.33c-10.8-.68-25.16-.67-35.8-1.33a.81.81,0,0,0-.59.59c-.26,0-.34-.25-.3-.59-2.88.07-6.72-.39-9.32-.3-2.21.08-4.37.32-4.73-.89a2.74,2.74,0,0,1,0-1.18c-.15.1-.15.34-.44.3a64.36,64.36,0,0,0,0-12.87c.89-2.93.07-6.42.3-8.88,0-.44.61-.63.15-1,.72.08.6-.68,1.48-.44-.05.19-.26.23-.3.44.58.23.31-.38.59-.44,3.56.22,6.27.11,10.5,0,.26,0,.3.14.15.15A136,136,0,0,0,214.61,26.7Z"/><path class="cls-4" d="M726.09,17.77c.34,9.2.57,20.73.74,29-.72.06-.82,1.06-.89,1.33-1.57,2.05-3.09,4.24-4.59,6.36-.59.83-.94,1.77-1.48,2.66-.14.22-.77.45-.89.74-.39.95,0,.24-.59.89a25.13,25.13,0,0,0-1.63,3,14.42,14.42,0,0,0-.89,1.18c-.92,1.88-2.44,4.44-3.4,6.36-1.27,2.55-2.34,5.14-3.55,8.28-.09.23-.55.33-.59.59s.24.34.15.59c0,.05-.42-.05-.44,0-.44,1-.78,2.26-1.18,3.4-.69,2-1.39,4.23-2.22,6.36-.57,1.47-1.23,2.36-1.33,3.85a107.25,107.25,0,0,0-5.77,21.45c-.33.64-1.08,2.86-.74,3.85-1.9,5-1.81,8.81-2.66,12.87-.12.62.29.7.3,1.18-.21-.17-.36-.16-.44.15-.53,3.12-.32,6.18-1,7.84.63,0,.08,1,0,1.78-.85,8.95-.48,18.26-1,26-.29.15-.63.25-.74.59-8.38,0-17,0-26.48-.15-.12-.47-.54-.65-.74-1a1.21,1.21,0,0,1,.44-1c-.68-4.55-.2-9.88.15-15.09.18-2.71.38-5.45.3-7.84.93-11.39,2.8-22.7,4.73-34.32.13-.76.41-1.7.59-2.51s.37-1.9.59-2.66c.95-3.25,1.7-6.84,2.81-9.76.23-.59.12-1.53.3-2.07,1.91-5.82,3.77-12,6.21-17.75a24.54,24.54,0,0,0,1.63-4.14c4.17-9.28,9.29-18.27,15.83-24.7-2.92-.6-6,.27-9-.15a62.39,62.39,0,0,0-8.73,0c-2.37.05-4.71.29-7,.3-1.66,0-3.28-.31-4.88-.3s-3.31.49-4.88.44c-.78,0-1.6-.46-2.07.3-.57-.59-1,.11-1.48-.44-4.09.6-10.65-.37-16.27,0-1.21.08-3,.75-3.7-.15-.22.13,0,.22-.15.59a3.68,3.68,0,0,1-2.07-2.07c.46-8.69-.53-17.9.3-25.15a8.77,8.77,0,0,1,2.07-.59c0,.17-.27.13-.45.15,2.81-.4,5.54-.21,8.73-.44,1.65-.12,3.37.35,4.88.15,1.26-.17,2.57.2,3.7.15a9.35,9.35,0,0,1,2.51,0c3.94.64,8.6-.19,13-.15,7.85.08,15.63-.31,23.37,0,2,.08,4.2.55,5.77,0a179.45,179.45,0,0,0,24-.44C725.78,17.65,725.35,17.67,726.09,17.77Z"/><path class="cls-4" d="M513.35,24.59a130.29,130.29,0,0,0,0,17.45,2,2,0,0,0,0,2.07c-.46,1.8-.58,4.6-.15,5.62-.89.14-.26,1-.59,1.92-.33-.13-.6,0-.74-.59-14.1.47-28.9-.54-45.71-.3-3.26,5.56-5,10.88-8,16.57a31.8,31.8,0,0,1-4,8.58c-.67,2.78-2.2,4.7-3.11,7.25,9.49-5,23-5.74,33.87-1.48-.11.56.57.32.59.74,7.06,3,12.32,7.79,16.71,13.46.73.94.89,2.23,2.07,2.81A13.22,13.22,0,0,0,507,103c.62,2.39,1.73,4.06,2.81,6.36.08,1,.22,2,.89,2.37-.26,1.36.66,2.51,1,3.7.88,2.84.76,5.73,1.48,8.43a83.14,83.14,0,0,1-.45,13c-.07.42-.36.63-.44,1,0,3.52-1.85,7.08-2.51,10.21C506,155.31,502,162.33,495,166.3c-.26.13-.27.52-.44.74-3.37,1.31-5.85,3.52-9.76,4.29A51.16,51.16,0,0,1,472.38,174c-1.87.16-3.91,0-6.51,0-.78,0-1.48.32-2.22.3-2.09-.07-5.1-.67-6.8-.89a42.6,42.6,0,0,1-16.12-5.77c-1.34-.84-2.72-1.87-4.14-3a47.4,47.4,0,0,1-6.8-6.36,13.76,13.76,0,0,1-2.07-2.81c-.2-.25-.84,0-1-.29-.19-1,0-1.11-.15-1.78,1.25-1,2.83-1.81,4.29-2.81a17.17,17.17,0,0,1,2.22-1.48c2.57-1.36,5-3.42,7.54-4.88.77-.45,1.64-.7,2.37-1.18s1.33-1.18,2.07-1.63a20.22,20.22,0,0,0,2.51-1.33,7.92,7.92,0,0,1,1.92,0c4,5.56,10.16,8.92,18,9.62,10.53-1.84,17.1-9.58,18.93-19.23,1.75-9.2-1.64-18.78-10.06-23.22-2.72-1.44-6.11-2-9.91-2.37-3.5.42-5.4,1.58-8,3-2.95-1.11-6-2-8.14-3.25-.47-.17-.34,0-.89,0-.5-.7-1.48-.6-2.22-.89a28.31,28.31,0,0,0-4-1.63,1.83,1.83,0,0,0-.89.15c-1-.26-2-1.25-3.11-1a89.27,89.27,0,0,1-13.46-21.45c2.65-7.33,6.17-14,9-20.86.29-.69.86-1.21,1.18-1.92s.29-1.55.59-2.22c1.51-3.31,3-6.64,4.44-9.91.59-1.34,1-2.77,1.63-4.14.32-.69.71-1.4,1-2.07,1-2,2.09-5.31,3.55-7.84a14.45,14.45,0,0,1,2.07-5c0-.88.1-.91.15-1.63.52-.32,1.2-.48,1.48-1,5.28.06,9.63,0,14.79.3.63,0,1.34-.41,2.07-.44,1.74-.09,3.72.11,5.62.15,11.08.19,22.92.36,33.87.3C509.64,23.39,512.38,23.72,513.35,24.59Z"/><circle class="cls-5" cx="19.74" cy="95.47" r="10.29"/><circle class="cls-6" cx="19.74" cy="95.47" r="5.78"/><circle class="cls-5" cx="756.7" cy="95.47" r="10.29"/><circle class="cls-6" cx="756.7" cy="95.47" r="5.78"/></g></g></svg>