<svg width="196" height="47" viewBox="0 0 196 47" xmlns="http://www.w3.org/2000/svg"><g fill="#FFF" fill-rule="evenodd"><path d="M53.566 42.256s-5.424 5.314-9.702 1.03C40.869 40.289.828.406.828.406H11.63l41.936 41.851zM53.575 27.518a31.303 31.303 0 0 0-.772-3.85c-.364-1.34-.893-2.446-1.49-3.289-.659-.927-1.612-1.61-2.718-1.986-.83-.282-1.663-.378-2.61-.41V33.08l7.59 7.585V27.518z"/><path d="M47.069 9.243h-6.203l-7.598 7.59h10.515c.769 0 1.497-.012 2.202.013 1.016.03 1.989.137 2.976.472 1.314.448 2.47 1.269 3.277 2.404.689.968 1.107 2.103 1.337 3.264V16.15c0-3.45-2.171-6.907-6.506-6.907M61.561 24.527c-.214-.532-.535-.709-1.102-.709h-.354V20.87h1.775c1.599 0 2.202.392 2.735 1.813l3.87 10.33c.355.996.638 2.345.638 2.345h.071s.283-1.35.64-2.345l3.835-10.33c.533-1.42 1.171-1.813 2.735-1.813h1.669v2.948h-.356c-.604 0-.96.177-1.172.71l-5.468 14.309H67.1l-5.54-14.31zM81.973 17.356h3.091v-3.587h-3.091v3.587zm-.07 7.242c0-.532-.285-.78-.782-.78h-1.455V20.87h3.373c1.598 0 2.271.675 2.271 2.273v11.965c0 .533.285.782.782.782h1.456v2.947h-3.373c-1.598 0-2.273-.676-2.273-2.272V24.598zM98.264 20.445c2.166 0 6.463.886 6.463 3.94v1.848h-3.125v-.995c0-1.278-2.024-1.846-3.338-1.846-3.514 0-6.142 2.627-6.142 6.427 0 4.082 2.982 6.39 6.32 6.39 3.372 0 5.577-2.485 5.577-2.485l1.49 2.45s-2.557 3.089-7.315 3.089c-5.646 0-9.588-4.011-9.588-9.408 0-5.292 3.871-9.41 9.658-9.41M112.818 24.6c0-.534-.283-.782-.781-.782h-1.455V20.87h3.265c1.564 0 2.308.639 2.308 2.095V24.1c0 .71-.07 1.244-.07 1.244h.07c.854-2.628 2.913-4.688 5.683-4.688.462 0 .924.07.924.07v3.41s-.462-.105-1.031-.105c-2.2 0-4.225 1.56-5.04 4.225-.322 1.029-.428 2.13-.428 3.23v7.35h-3.445V24.6zM132.348 36.28c3.408 0 6.177-2.697 6.177-6.462 0-3.726-2.769-6.39-6.177-6.39-3.374 0-6.144 2.664-6.144 6.39 0 3.765 2.77 6.462 6.144 6.462m0-15.836c5.36 0 9.693 3.942 9.693 9.374 0 5.469-4.333 9.444-9.693 9.444-5.361 0-9.66-3.975-9.66-9.444 0-5.432 4.299-9.374 9.66-9.374M150.605 36.494c2.914 0 4.794-3.054 4.794-5.716v-.605h-.888c-2.591 0-7.28.143-7.28 3.445 0 1.457 1.1 2.876 3.374 2.876m3.978-8.842h.78v-.176c0-3.161-1.17-4.296-3.977-4.296-.852 0-2.947.212-2.947 1.383v1.029h-3.231v-1.774c0-2.948 4.474-3.373 6.215-3.373 5.824 0 7.385 3.052 7.385 7.03v7.632c0 .535.283.783.781.783h1.457v2.948h-3.231c-1.6 0-2.24-.784-2.24-2.06 0-.604.071-1.065.071-1.065h-.07s-1.42 3.55-5.716 3.55c-3.088 0-6.107-1.883-6.107-5.468 0-5.786 7.811-6.143 10.83-6.143M175.607 29.818c0-3.196-1.668-6.39-5.112-6.39-2.804 0-5.15 2.342-5.15 6.425 0 3.907 2.097 6.427 5.08 6.427 2.662 0 5.182-1.882 5.182-6.462m-5.643-9.374c4.153 0 5.537 2.77 5.537 2.77h.072s-.072-.531-.072-1.206v-4.511c0-.53-.284-.781-.781-.781h-1.457v-2.947h3.41c1.6 0 2.273.674 2.273 2.273V35.11c0 .53.283.778.781.778h1.455v2.948h-3.302c-1.56 0-2.2-.71-2.2-1.916 0-.534.035-.924.035-.924h-.071s-1.492 3.266-5.894 3.266c-4.866 0-7.92-3.834-7.92-9.409 0-5.717 3.374-9.41 8.134-9.41M183.844 33.795s2.13 2.663 5.433 2.663c1.67 0 3.125-.746 3.125-2.308 0-3.231-9.802-2.876-9.802-8.664 0-3.443 3.02-5.041 6.677-5.041 2.166 0 5.894.746 5.894 3.479v1.704h-3.09v-.886c0-1.067-1.597-1.527-2.697-1.527-2.025 0-3.339.709-3.339 2.128 0 3.41 9.802 2.666 9.802 8.665 0 3.196-2.841 5.257-6.606 5.257-4.794 0-7.172-3.163-7.172-3.163l1.775-2.307z"/></g></svg>