<svg id="Layer_1" data-name="Layer 1" xmlns="http://www.w3.org/2000/svg" viewBox="0 0 495.03 271.28"><defs><style>.cls-1{fill:#fff;}.cls-2{fill:#00529c;}.cls-3{fill:#ee3124;}</style></defs><title>Artboard 1</title><path class="cls-1" d="M0,135.63C0,60.75,110.83,0,247.49,0S495,60.75,495,135.63,384.21,271.28,247.49,271.28,0,210.58,0,135.63Z"/><path class="cls-2" d="M9.26,135.63c0-73,106.69-132.1,238.22-132.1s238.3,59.1,238.3,132.1-106.7,132.2-238.3,132.2S9.26,208.64,9.26,135.63Z"/><path class="cls-3" d="M267.22,208.91H159L155,189.39H113.23l-6,15.23c32.71,25.86,83.41,42.47,140.29,42.47,53.69,0,101.83-14.78,134.59-38.11H328.84l-6.89-90.23H308.22l2.4,46h-43.4Z"/><path class="cls-3" d="M109.59,64.92H179L203,138.6,205.09,65h180.4c-20.66-15.63-47.95-27.66-79.27-34.47V42.4H287.89V27.22c-4.83-.72-9.71-1.25-14.7-1.74v27H254.86v-28c-2.45-.08-4.87-.11-7.37-.11s-4.9,0-7.33.11v28H221.82v-27c-4.94.49-9.83,1-14.65,1.74V42.4H188.79V30.52C157.55,37.32,130.24,49.33,109.59,64.92Z"/><path class="cls-3" d="M382.62,87.3l8.71,68h32.09a71.79,71.79,0,0,0,2.76-19.62c0-20.82-9.2-40.33-25.21-57.05Z"/><path class="cls-3" d="M107.09,85.39,93.53,79.24c-15.69,16.58-24.66,35.87-24.66,56.47a68.43,68.43,0,0,0,.73,10.17Z"/><path class="cls-1" d="M447,193.36H337.12l-9.49-121h66.45L360,86.92h13.9l9.67,75.9H439.7ZM299,122l1.43,26.65H255.88v44.76h-90L161.47,174H107.61l-9.79,19.35h-48l66-106.44h14.86L99,72.34h73L208.6,181.74h1.48l3.59-109.39H318.6L320.89,102h-65v20Z"/><polygon class="cls-2" points="145.47 103.85 143.07 103.85 118.87 151.96 156.43 151.96 145.47 103.85"/><path class="cls-1" d="M247.49,12.56c-108.27,0-196.07,55.08-196.07,123.07a80.83,80.83,0,0,0,5.89,30l9.41-15.15a76.88,76.88,0,0,1-1.45-14.79c0-53.36,54.85-98.43,130.09-112.91V35.88h5.23V21.8a279.57,279.57,0,0,1,27.8-3.29V45.94h5.21V18.21c4.58-.24,9.23-.34,13.88-.34s9.33.1,13.92.34V45.94h5.25V18.51c9.47.63,18.77,1.78,27.78,3.29V35.88h5.25V22.8c75.22,14.47,130.09,59.55,130.09,112.91a75.21,75.21,0,0,1-2.58,19.62h13.91a78.38,78.38,0,0,0,2.5-19.7C443.6,67.65,355.79,12.56,247.49,12.56Z"/><path class="cls-1" d="M247.49,253.59c-57.68,0-109.16-17.38-142.55-44.51H90.14c35.79,30.15,92.92,49.69,157.34,49.69S369.28,239.16,405,209H390.3C356.89,236.14,305.36,253.59,247.49,253.59Z"/><path class="cls-1" d="M420.2,199.89a8.37,8.37,0,0,1,8.38,8.51,8.2,8.2,0,0,1-2.42,5.79,8.83,8.83,0,0,1-6,2.47,8.31,8.31,0,0,1-5.94-2.55,8.23,8.23,0,0,1-2.33-5.88,8.52,8.52,0,0,1,2.48-6A8,8,0,0,1,420.2,199.89Zm0-1.62a9.74,9.74,0,0,0-8.5,4.78,10.55,10.55,0,0,0-1.45,5.21,10.07,10.07,0,0,0,10,10,10,10,0,0,0,7.08-2.93,9.75,9.75,0,0,0,3-7.09,10,10,0,0,0-10-10Zm-4.12,4.25v11.11h2.67V209h1.33l2.14,4.59h3l-2.51-5a2.94,2.94,0,0,0,2.46-2.91c0-2.12-1.56-3.21-4.75-3.21Zm2.67,1.67h1.17c1.65,0,2.44.53,2.44,1.7s-.73,1.57-2.28,1.57h-1.33Z"/></svg>