<svg xmlns="http://www.w3.org/2000/svg" viewBox="0 0 650.45 368.5"><defs><style>.cls-1{fill:#fff;}</style></defs><title>Artboard 1</title><g id="Layer_2" data-name="Layer 2"><path class="cls-1" d="M393.05,114c-25,0-45,18.73-45,43.45s20,43.45,45,43.45,45-18.73,45-43.45S418,114,393.05,114Zm0,64.29a20.84,20.84,0,1,1,21-20.84A21.06,21.06,0,0,1,393.05,178.29Z"/><path class="cls-1" d="M519.2,146.15c0-17.4-14-30.26-31.69-30.26H449.34V199h22.84V176.4h10.75L493.34,199H519l-14.22-27.93C512.82,165.54,519.2,157.34,519.2,146.15Zm-31.69,9.75H472.18V136.28h15.34c5.15,0,8.51,5.77,8.51,9.86S492.67,155.9,487.52,155.9Z"/><rect class="cls-1" x="533.06" y="115.89" width="22.84" height="83.13"/><path class="cls-1" d="M611.94,115.88h-8.57L564.85,199h24.49l4-9.42h28.58l4,9.42h24.49Zm-11.61,54,7.08-16.18h.47L615,169.86Z"/><path class="cls-1" d="M287.82,115.89,341.52,0H0L54,116.64h25.2l20.68,44.62,20.68-44.62h25.25L108,198.29H91.88L170.76,368.5l80.7-174.14a42.34,42.34,0,0,1-21.27,5.7c-24.38,0-43.76-18.4-43.76-42.68s19.37-42.68,43.76-42.68a42.57,42.57,0,0,1,36.57,20.79l-19,11.43a20.74,20.74,0,0,0-17.53-10,20.47,20.47,0,1,0,17.53,30.92l12.55,7.53,18.11-39.09h18.94V199h22.84V136.28h23V115.89ZM176,198.29H152.71V116.64H176Z"/><path class="cls-1" d="M323.41,243.44a22.35,22.35,0,0,0-11.79-3.53c-4.66,0-8,1.84-8,5s3.59,4,8.58,4.81l2.34.39c7.43,1.22,13.25,4.39,13.25,11.64,0,9.18-8.08,13.54-17,13.54-6.3,0-13.07-1.84-17.52-5.44l4.31-6.68a22,22,0,0,0,13.24,4.48c4.6,0,8.17-1.81,8.17-5,0-2.88-3-3.95-8.82-4.87l-2.64-.41c-7.34-1.16-12.68-4.4-12.68-11.91,0-8.67,7.72-13.18,16.57-13.18a29.25,29.25,0,0,1,15.89,4.42Z"/><path class="cls-1" d="M353.85,252.65H343.42v10.52c0,3.59,1.9,4.9,4.31,4.9a11.22,11.22,0,0,0,5.4-1.87l2.85,6.06a16.09,16.09,0,0,1-9.54,3c-7.13,0-10.78-4-10.78-11.49V252.65h-5.55v-6.89h5.55V237.2h7.75v8.56h10.42Z"/><path class="cls-1" d="M365.28,260.13c0,4.39,2.88,7.93,7.43,7.93s7.42-3.38,7.42-7.93-3-7.93-7.42-7.93-7.43,3.54-7.43,7.93m22.19,14.41h-7.57v-3.18a10.56,10.56,0,0,1-8.61,3.92c-7.93,0-13.93-6.5-13.93-15.15s6-15.15,13.93-15.15a10.54,10.54,0,0,1,8.61,3.95v-3.17h7.57Z"/><path class="cls-1" d="M415.29,252.65H404.86v10.52c0,3.59,1.9,4.9,4.31,4.9a11.22,11.22,0,0,0,5.4-1.87l2.85,6.06a16.09,16.09,0,0,1-9.54,3c-7.13,0-10.78-4-10.78-11.49V252.65h-5.55v-6.89h5.55V237.2h7.75v8.56h10.42Z"/><path class="cls-1" d="M426.8,257.43h12.74c-.71-3.68-2.94-5.76-6.27-5.76-3.65,0-5.79,2.2-6.48,5.76m20.52,2.67a22.35,22.35,0,0,1-.15,2.62h-20.4c.83,4.16,3.74,6,7.4,6a11.64,11.64,0,0,0,7.27-2.76l4.54,5c-3.27,3-7.42,4.36-12.27,4.36-8.82,0-14.94-6-14.94-15.06S424.73,245,433.34,245c8.29,0,14,6.15,14,15.12"/><path class="cls-1" d="M330.93,292l-6,5.85a12.91,12.91,0,0,0-10-4.36c-7.6,0-13.13,5.58-13.13,13.69,0,8.49,5.79,13.81,13,13.81,6.77,0,10.72-3.27,11.82-9.18H316v-6.92h19.13a21.07,21.07,0,0,1,.12,2.35c0,12.59-8.52,21.47-20.31,21.47-11.52,0-21.74-8.11-21.74-21.53,0-12.56,9.18-21.56,21.95-21.56,6.59,0,12.09,2.38,15.77,6.39"/><path class="cls-1" d="M347.08,313.58c0,4.67,3.27,7.93,7.63,7.93a7.93,7.93,0,0,0,0-15.86c-4.37,0-7.63,3.27-7.63,7.93m23.22,0c0,8.67-6.62,15.15-15.59,15.15s-15.53-6.47-15.53-15.15,6.59-15.15,15.53-15.15,15.59,6.48,15.59,15.15"/><polygon class="cls-1" points="391.38 327.99 382.44 327.99 371.07 299.21 379.5 299.21 386.95 319.82 394.47 299.21 402.64 299.21 391.38 327.99"/><path class="cls-1" d="M411.45,310.88h12.74c-.71-3.68-2.94-5.76-6.27-5.76-3.65,0-5.79,2.2-6.48,5.76M432,313.55a22.35,22.35,0,0,1-.15,2.62h-20.4c.83,4.16,3.74,6,7.4,6a11.64,11.64,0,0,0,7.27-2.76l4.54,5c-3.27,3-7.42,4.36-12.27,4.36-8.82,0-14.94-6-14.94-15.06s5.94-15.24,14.55-15.24c8.29,0,14,6.15,14,15.12"/><path class="cls-1" d="M456.77,299.06l-1.16,7.69a12.55,12.55,0,0,0-4.69-.92c-3.59,0-6.06,2.2-6.06,6.48V328h-7.75V299.21h7.51v3.15c1.81-2.7,4.57-3.92,8.11-3.92a11.69,11.69,0,0,1,4,.63"/><path class="cls-1" d="M488.07,309.66V328h-7.75V312.15c0-4.16-2.08-6.44-5.61-6.44-3.33,0-6.09,2.17-6.09,6.5V328h-7.75V299.21h7.54v3.38a9.65,9.65,0,0,1,8.47-4.16c6.53,0,11.2,4.55,11.2,11.23"/><path class="cls-1" d="M541.4,309.66V328h-7.72V312.15c0-4.16-2.11-6.44-5.61-6.44-3.33,0-6.09,2.17-6.09,6.5V328h-7.75V312.15c0-4.16-2.08-6.44-5.61-6.44-3.33,0-6.09,2.17-6.09,6.5V328h-7.75V299.21h7.54v3.38a9.65,9.65,0,0,1,8.47-4.16,10.9,10.9,0,0,1,9.5,4.93c2.23-3.65,6-4.93,9.77-4.93,6.77,0,11.35,4.55,11.35,11.23"/><path class="cls-1" d="M554.34,310.88h12.74c-.71-3.68-2.94-5.76-6.27-5.76-3.65,0-5.79,2.2-6.48,5.76m20.52,2.67a22.35,22.35,0,0,1-.15,2.62h-20.4c.83,4.16,3.74,6,7.4,6a11.64,11.64,0,0,0,7.27-2.76l4.54,5c-3.27,3-7.42,4.36-12.27,4.36-8.82,0-14.94-6-14.94-15.06s5.94-15.24,14.55-15.24c8.29,0,14,6.15,14,15.12"/><path class="cls-1" d="M607.2,309.66V328h-7.75V312.15c0-4.16-2.08-6.44-5.61-6.44-3.33,0-6.09,2.17-6.09,6.5V328H580V299.21h7.54v3.38a9.65,9.65,0,0,1,8.47-4.16c6.53,0,11.2,4.55,11.2,11.23"/><path class="cls-1" d="M634.49,306.1H624.06v10.52c0,3.59,1.9,4.9,4.31,4.9a11.23,11.23,0,0,0,5.41-1.87l2.85,6.06a16.08,16.08,0,0,1-9.53,3c-7.13,0-10.78-4-10.78-11.49V306.1h-5.55v-6.89h5.55v-8.56h7.75v8.56h10.42Z"/></g></svg>